<svg width="52" height="52" xmlns="http://www.w3.org/2000/svg" preserveAspectRatio="xMidYMid meet" class="iconify iconify--gis" role="img" aria-hidden="true" viewBox="0 0 52 52"><g><path id="svg_1" class="jp-icon2" fill="#424242" d="m18.198 3.25a1.244 1.277 0 0 0 -0.536 0.118l-15.755 7.513a1.244 1.277 0 0 0 -0.72 1.158l0 35.896a1.244 1.277 0 0 0 1.768 1.158l15.231 -7.263l15.231 7.262a1.244 1.277 0 0 0 1.049 0l7.682 -3.662l3.265 5.804a1.31 2.025 60 0 0 2.363 0.152a1.31 2.025 60 0 0 1.053 -2.177l-3.09 -5.493l4.481 -2.136a1.244 1.277 0 0 0 0.72 -1.158l0 -35.896a1.244 1.277 0 0 0 -1.768 -1.158l-15.231 7.263l-15.231 -7.262a1.244 1.277 0 0 0 -0.513 -0.119l0 0l0 0zm0.456 1.732l14.741 6.921l0.1 1.541a12.232 12.556 0 0 0 -6.059 1.783c-5.878 3.484 -7.903 11.24 -4.509 17.274c2.177 3.87 6.165 6.201 10.222 6.384l-0.041 8.688l-14.492 -6.67l-0.002 -35.021l-0.064 -1.001l0.103 0.101l0 0zm-1.121 0.079l0.022 35.84l-15.365 7.214l0.02 -35.788l15.323 -7.368l0 0.101zm32.283 -0.092l-0.02 35.183l-4.768 2.278l-2.276 -4.021a1.31 2.025 60 0 0 -1.1 -0.531l-0.838 -1.488c5.037 -3.748 6.628 -10.887 3.451 -16.535c-1.697 -3.017 -4.435 -5.045 -7.483 -5.883a12.432 12.761 0 0 0 -2.103 -0.38l0.003 -1.684c4.907 -2.279 10.123 -4.861 15.031 -7.141l0.103 0.101l0 0.101zm-16.473 11.369a9.567 9.821 0 0 1 2.735 0.332a9.553 9.806 0 0 1 5.817 4.591a9.56 9.814 0 0 1 -3.507 13.435a9.561 9.815 0 0 1 -13.09 -3.6a9.561 9.815 0 0 1 3.508 -13.435a9.57 9.824 0 0 1 4.537 -1.323l0 0zm5.259 21.364l0.837 1.489a1.31 2.025 60 0 0 -0.103 1.243l1.748 4.012l-6.669 3.239l0.125 -8.928a12.256 12.581 0 0 0 4.062 -1.055l0 -0.001l0 0l0 0z"/></g></svg>